#!OML:ASF I:\golf\golf\golf 2\Subject 1\2002-09-07\Subject1.ASF
:FULLY-SPECIFIED
:DEGREES
142
root -10.9928 17.928 4.73018 -4.21842 78.5332 -23.3719
lowerback 4.15612 1.13719 -2.93391
upperback 5.54635 1.53606 3.28962
thorax 3.24181 0.651511 5.04346
lowerneck -13.0355 -0.269184 1.5464
upperneck 41.3928 3.58957 -5.52116
head 17.6099 1.50627 -2.00118
rclavicle 4.04527e-014 -3.97569e-015
rhumerus -13.8896 23.0586 -98.7299
rradius 47.3245
rwrist -49.4739
rhand -32.4827 -8.0932
rfingers 7.12502
rthumb -5.71477 -37.9961
lclavicle 4.04527e-014 -3.97569e-015
lhumerus -8.44805 -45.6299 104.714
lradius 42.9592
lwrist 48.242
lhand -6.25775 63.265
lfingers 7.12502
lthumb -160.415 87.7015
rfemur -35.0976 -0.151871 16.7813
rtibia 28.9733
rfoot -7.7417 -2.93895
rtoes -7.33925
lfemur -32.0913 6.97119 -9.20801
ltibia 27.6602
lfoot -9.2808 2.3272
ltoes -20.721
143
root -10.991 17.9302 4.72935 -3.81575 78.4327 -22.9546
lowerback 4.1809 1.13453 -2.98011
upperback 5.52316 1.53077 3.23158
thorax 3.20452 0.648883 5.00767
lowerneck -12.9842 -0.247243 1.55915
upperneck 41.3839 3.61437 -5.51327
head 17.5926 1.51949 -1.99527
rclavicle -5.56597e-015 2.14687e-014
rhumerus -13.8364 23.0257 -98.751
rradius 47.2388
rwrist -49.4303
rhand -32.5011 -8.17816
rfingers 7.12502
rthumb -5.73256 -38.0806
lclavicle -5.56597e-015 2.14687e-014
lhumerus -8.52397 -45.6774 104.716
lradius 42.9999
lwrist 48.3512
lhand -5.99596 62.966
lfingers 7.12502
lthumb -160.164 88.0263
rfemur -35.0833 -0.181955 16.7467
rtibia 28.932
rfoot -7.70208 -2.74167
rtoes -7.16733
lfemur -32.0631 6.96575 -9.25362
ltibia 27.7148
lfoot -9.2961 2.41526
ltoes -20.3582
144
root -10.989 17.9312 4.72738 -3.79044 78.3377 -22.8925
lowerback 4.24785 1.13585 -2.92617
upperback 5.49981 1.53232 3.18349
thorax 3.1442 0.653992 4.92423
lowerneck -12.9493 -0.233385 1.56975
upperneck 41.4096 3.62023 -5.47391
head 17.5974 1.52931 -1.9787
rclavicle 1.77912e-014 -3.97569e-016
rhumerus -13.8352 22.9388 -98.7688
rradius 47.2314
rwrist -49.4401
rhand -32.5977 -8.09105
rfingers 7.12502
rthumb -5.82584 -37.991
lclavicle 1.77912e-014 -3.97569e-016
lhumerus -8.6037 -45.718 104.719
lradius 43.0385
lwrist 48.4304
lhand -6.10127 62.9226
lfingers 7.12502
lthumb -160.265 88.0592
rfemur -35.0301 -0.17855 16.7756
rtibia 28.8822
rfoot -7.68159 -2.67912
rtoes -7.10754
lfemur -32.007 6.93486 -9.2172
ltibia 27.7729
lfoot -9.32805 2.54331
ltoes -20.0465
145
root -10.9871 17.9315 4.72421 -4.00033 78.2395 -23.0746
lowerback 4.31107 1.1356 -2.83483
upperback 5.48236 1.53272 3.1693
thorax 3.09228 0.659151 4.85542
lowerneck -12.9304 -0.214257 1.60883
upperneck 41.4266 3.64177 -5.47934
head 17.6045 1.54364 -1.98511
rclavicle 1.31198e-014 8.54774e-015
rhumerus -13.839 22.7338 -98.7617
rradius 47.2315
rwrist -49.4086
rhand -32.6074 -7.98334
rfingers 7.12502
rthumb -5.83515 -37.883
lclavicle 1.31198e-014 8.54774e-015
lhumerus -8.62553 -45.8194 104.724
lradius 43.0788
lwrist 48.5236
lhand -6.21318 63.2454
lfingers 7.12502
lthumb -160.373 87.7254
rfemur -34.9826 -0.128257 16.8394
rtibia 28.8468
rfoot -7.6894 -2.66947
rtoes -7.52112
lfemur -31.9473 6.87559 -9.12589
ltibia 27.8125
lfoot -9.35548 2.72874
ltoes -20.0781
146
root -10.9847 17.9316 4.72253 -4.07517 78.1349 -23.1411
lowerback 4.31039 1.15439 -2.79899
upperback 5.47979 1.55829 3.16091
thorax 3.08807 0.673412 4.82563
lowerneck -12.9284 -0.211826 1.65624
upperneck 41.4346 3.64299 -5.50813
head 17.6104 1.54775 -2.00728
rclavicle 8.94531e-015 5.36719e-015
rhumerus -13.8423 22.5282 -98.7068
rradius 47.2783
rwrist -49.4942
rhand -32.6547 -7.98405
rfingers 7.12502
rthumb -5.88082 -37.8824
lclavicle 8.94531e-015 5.36719e-015
lhumerus -8.64119 -45.9099 104.769
lradius 43.0656
lwrist 48.5014
lhand -5.85946 63.3384
lfingers 7.12502
lthumb -160.033 87.6675
rfemur -34.9703 -0.0492821 16.8694
rtibia 28.8371
rfoot -7.69711 -2.6484
rtoes -7.68768
lfemur -31.8949 6.82739 -9.0621
ltibia 27.8207
lfoot -9.36172 2.90211
ltoes -20.027
147
root -10.9813 17.9297 4.7221 -3.83785 78.0358 -22.9065
lowerback 4.25396 1.16312 -2.85376
upperback 5.48277 1.56922 3.14285
thorax 3.12104 0.676093 4.83906
lowerneck -12.8885 -0.193988 1.68594
upperneck 41.3883 3.66419 -5.53693
head 17.5757 1.55662 -2.02113
rclavicle 1.14301e-014 2.54444e-014
rhumerus -13.8704 22.5844 -98.6518
rradius 47.369
rwrist -49.6502
rhand -32.5682 -8.0768
rfingers 7.12502
rthumb -5.79729 -37.9775
lclavicle 1.14301e-014 2.54444e-014
lhumerus -8.68727 -45.8946 104.818
lradius 43.0671
lwrist 48.3863
lhand -5.5244 63.0713
lfingers 7.12502
lthumb -159.711 87.9685
rfemur -34.9814 -0.0161571 16.8429
rtibia 28.8175
rfoot -7.68488 -2.57343
rtoes -7.46015
lfemur -31.8635 6.86758 -9.10553
ltibia 27.8167
lfoot -9.34114 3.04484
ltoes -20.5986
148
root -10.9777 17.9268 4.72081 -3.56156 77.9452 -22.5951
lowerback 4.25105 1.14984 -2.9035
upperback 5.49247 1.55071 3.12384
thorax 3.1343 0.664827 4.84808
lowerneck -12.8419 -0.155622 1.68257
upperneck 41.3441 3.73016 -5.56937
head 17.5434 1.57795 -2.02264
rclavicle -1.60022e-014 3.08116e-014
rhumerus -13.9171 22.7149 -98.6033
rradius 47.446
rwrist -49.6093
rhand -32.3434 -8.19568
rfingers 7.12502
rthumb -5.58033 -38.1022
lclavicle -1.60022e-014 3.08116e-014
lhumerus -8.69274 -45.8881 104.829
lradius 43.1333
lwrist 48.4257
lhand -5.56002 63.0311
lfingers 7.12502
lthumb -159.745 88.005
rfemur -34.939 -0.0112022 16.8026
rtibia 28.7699
rfoot -7.66063 -2.49517
rtoes -7.67691
lfemur -31.7932 6.93337 -9.18241
ltibia 27.8026
lfoot -9.29512 3.17967
ltoes -21.5528
149
root -10.9755 17.9301 4.72005 -3.55913 77.8647 -22.5621
lowerback 4.27728 1.12838 -2.89887
upperback 5.48837 1.52178 3.10537
thorax 3.11882 0.651167 4.82594
lowerneck -12.8141 -0.125985 1.71628
upperneck 41.3497 3.78434 -5.61293
head 17.5452 1.59942 -2.03967
rclavicle 2.43511e-014 -5.1684e-015
rhumerus -13.9481 22.7033 -98.6138
rradius 47.4584
rwrist -49.524
rhand -32.3612 -8.14895
rfingers 7.12502
rthumb -5.59746 -38.055
lclavicle 2.43511e-014 -5.1684e-015
lhumerus -8.67236 -45.9305 104.82
lradius 43.1246
lwrist 48.5702
lhand -5.67239 63.1026
lfingers 7.12502
lthumb -159.853 87.9221
rfemur -34.8791 -0.02911 16.8416
rtibia 28.7007
rfoot -7.64819 -2.42536
rtoes -7.7787
lfemur -31.6406 6.73977 -9.01684
ltibia 27.7754
lfoot -9.43832 3.11441
ltoes -19.2088
150
root -10.9737 17.937 4.72017 -3.74418 77.7873 -22.7514
lowerback 4.2605 1.08802 -2.92469
upperback 5.47917 1.46711 3.1302
thorax 3.12349 0.622292 4.86801
lowerneck -12.7891 -0.0884012 1.73306
upperneck 41.3463 3.85149 -5.65376
head 17.5433 1.62311 -2.04991
rclavicle -1.51076e-014 -9.64106e-015
rhumerus -13.9651 22.7624 -98.654
rradius 47.4625
rwrist -49.589
rhand -32.6459 -8.04042
rfingers 7.12502
rthumb -5.87235 -37.939
lclavicle -1.51076e-014 -9.64106e-015
lhumerus -8.63322 -45.8738 104.828
lradius 43.025
lwrist 48.6146
lhand -6.19736 63.018
lfingers 7.12502
lthumb -160.357 87.9543
rfemur -34.8429 -0.182727 16.9861
rtibia 28.6077
rfoot -7.6352 -2.17701
rtoes -7.34782
lfemur -31.4582 6.28739 -8.63548
ltibia 27.7659
lfoot -9.78672 2.9409
ltoes -14.6134
151
root -10.9705 17.941 4.71842 -3.79689 77.7262 -22.7969
lowerback 4.24926 1.05061 -2.94958
upperback 5.47747 1.4166 3.14986
thorax 3.13267 0.595499 4.90407
lowerneck -12.7929 -0.0558921 1.70747
upperneck 41.3775 3.91042 -5.64798
head 17.566 1.64301 -2.03318
rclavicle 1.16289e-014 9.24349e-015
rhumerus -13.9718 22.7522 -98.6745
rradius 47.4744
rwrist -49.6116
rhand -32.7977 -7.98528
rfingers 7.12502
rthumb -6.01889 -37.8798
lclavicle 1.16289e-014 9.24349e-015
lhumerus -8.64088 -45.9113 104.899
lradius 43.0901
lwrist 49.1261
lhand -6.95797 63.083
lfingers 7.12502
lthumb -161.089 87.8163
rfemur -34.7824 -0.287998 17.06
rtibia 28.4995
rfoot -7.59541 -1.96706
rtoes -7.01936
lfemur -31.3538 6.00229 -8.44908
ltibia 27.7842
lfoot -9.96125 3.01182
ltoes -13.1668
152
root -10.9678 17.9428 4.71681 -3.45071 77.6566 -22.4384
lowerback 4.25099 1.04696 -3.02093
upperback 5.47654 1.41016 3.12873
thorax 3.13073 0.589921 4.92254
lowerneck -12.8394 -0.0358767 1.67746
upperneck 41.4513 3.94313 -5.60384
head 17.6217 1.65678 -2.0036
rclavicle 1.64991e-014 1.11319e-014
rhumerus -13.9369 22.6147 -98.654
rradius 47.4264
rwrist -49.4753
rhand -32.6876 -7.89681
rfingers 7.12502
rthumb -5.91261 -37.7943
lclavicle 1.64991e-014 1.11319e-014
lhumerus -8.67579 -45.9647 104.987
lradius 43.2098
lwrist 49.6057
lhand -7.01051 63.138
lfingers 7.12502
lthumb -161.139 87.7564
rfemur -34.7355 -0.210292 16.9759
rtibia 28.412
rfoot -7.55523 -1.9668
rtoes -7.07451
lfemur -31.3968 6.20374 -8.65193
ltibia 27.8086
lfoot -9.80179 3.2247
ltoes -15.4614
153
root -10.966 17.9447 4.71807 -3.01499 77.5721 -21.9971
lowerback 4.24333 1.03391 -3.22142
upperback 5.48058 1.38852 3.15577
thorax 3.13832 0.570951 5.06574
lowerneck -12.8866 0.00501726 1.64499
upperneck 41.4811 4.02809 -5.62598
head 17.6582 1.68152 -1.99376
rclavicle 1.77415e-014 -4.47266e-015
rhumerus -13.8909 22.7141 -98.5354
rradius 47.3905
rwrist -49.4283
rhand -32.4391 -7.94439
rfingers 7.12502
rthumb -5.67266 -37.8485
lclavicle 1.77415e-014 -4.47266e-015
lhumerus -8.57269 -45.6462 104.986
lradius 43.0343
lwrist 48.8874
lhand -7.02395 62.8455
lfingers 7.12502
lthumb -161.152 88.0477
rfemur -34.7269 -0.151415 16.8931
rtibia 28.3677
rfoot -7.54329 -1.9529
rtoes -7.23255
lfemur -31.4443 6.45375 -8.85896
ltibia 27.8322
lfoot -9.69236 3.31585
ltoes -16.7941
154
root -10.9638 17.9455 4.71864 -2.92785 77.4867 -21.9348
lowerback 4.19232 1.00263 -3.33314
upperback 5.4902 1.34516 3.19606
thorax 3.1798 0.543167 5.17397
lowerneck -12.9091 0.0592177 1.60686
upperneck 41.4624 4.11883 -5.63296
head 17.6594 1.70871 -1.9736
rclavicle 2.83268e-015 -4.47266e-015
rhumerus -13.8398 22.904 -98.4384
rradius 47.4053
rwrist -49.4829
rhand -32.3344 -8.0493
rfingers 7.12502
rthumb -5.57156 -37.9561
lclavicle 2.83268e-015 -4.47266e-015
lhumerus -8.4549 -45.3643 104.907
lradius 42.895
lwrist 48.2492
lhand -5.85539 62.9175
lfingers 7.12502
lthumb -160.029 88.0888
rfemur -34.7498 -0.123844 16.9073
rtibia 28.3491
rfoot -7.55225 -1.88739
rtoes -7.10511
lfemur -31.3849 6.31281 -8.71926
ltibia 27.871
lfoot -9.90166 3.22692
ltoes -14.6455
